<svg xmlns="http://www.w3.org/2000/svg" viewBox="0 0 64 64" width="64" height="64">
  <defs>
    <linearGradient id="bg" x1="0" y1="0" x2="1" y2="1">
      <stop offset="0%" stop-color="#7C5CFC"/>
      <stop offset="100%" stop-color="#5F3EED"/>
    </linearGradient>
  </defs>
  <rect x="0" y="0" width="64" height="64" rx="14" fill="url(#bg)"/>
  <!-- Graduation Cap -->
  <path d="M32 15L10 26l5 2v7c0 3 7 6 17 6s17-3 17-6V28l-2-1v6.5c0 1.8-5.8 3.5-15 3.5s-15-1.7-15-3.5V26.5L32 20l15 6-15 6-10-4" fill="#fff"/>
  <!-- Tassel -->
  <path d="M32 15v4M36 18c-1.5 1-3 1.5-4 1.5" fill="none" stroke="#F4B826" stroke-width="2" stroke-linecap="round"/>
  <circle cx="39" cy="16" r="1.5" fill="#F4B826"/>
  <!-- Open Book Left Page -->
  <path d="M12 38v15c0 1 5 2 10 2s10-1 10-2V38c0 1-5 2-10 2s-10-1-10-2z" fill="#fff"/>
  <!-- Open Book Right Page -->
  <path d="M32 38v15c0 1 5 2 10 2s10-1 10-2V38c0 1-5 2-10 2s-10-1-10-2z" fill="#fff"/>
  <!-- Spine -->
  <line x1="32" y1="36" x2="32" y2="55" stroke="#fff" stroke-width="1.5"/>
</svg>
